#!OML:ASF F:\VICON\USERDATA\INSTALL\rory3\rory3.ASF
:FULLY-SPECIFIED
:DEGREES
9
root 0.5258491586316971 17.700501023368396 -25.28888627400056 4.5803779527885204 -0.42278823244544506 -4.323182120017439
lfemur -44.48938714705234 0.13407807982538156 -15.974508608636187
ltibia 78.03849204773394
lfoot -5.026046072155341 -6.419544860468124
ltoes -10.439697176287162
rfemur 8.647048589451419 4.812965462049478 34.545089993278054
rtibia 33.83840989818436
rfoot 0.5657866792782391 -1.2273580679624105
rtoes -16.077286942718384
lowerback 10.845016914428202 2.331801535560205 6.650498474858451
upperback 0.43023325959568304 4.021791552367766 1.8609348242270227
thorax -5.311488140810352 1.8345806568353478 -2.3822309071904826
lowerneck -20.2139945785353 -4.993582638848144 -3.3189149276464804
upperneck 10.986008857952736 -6.4410561461363125 3.930541142015526
head 6.872408310105799 -2.882423487056713 1.059411872557142
lclavicle 2.980152073041707e-15 1.190092796624467e-16
lhumerus -62.93779026323094 -9.120642709589195 98.50958661079474
lradius 108.30400785351536
lwrist 30.639709885116755
lhand -19.74940884579225 3.427476881215526
lfingers 7.125019999999999
lthumb 6.581681154614719 33.30519705656079
rclavicle 2.980152073041707e-15 1.190092796624467e-16
rhumerus -30.185216631120014 16.59108902352107 -97.01930238803672
rradius 118.09898573586536
rwrist -16.23399388335498
rhand -18.35308546063534 44.487068963007765
rfingers 7.125019999999999
rthumb 7.929554540706447 14.65576896525771
10
root 0.5425177334069275 17.89109777233597 -24.185286736824025 4.258619899860963 0.4125975129342383 -3.7850540250886966
lfemur -43.032787798978404 -1.5291327875141678 -17.057707080300396
ltibia 68.1003954408564
lfoot -3.7558869088163487 -6.913273974863239
ltoes -7.101200219580932
rfemur 12.794486712273443 4.264456579282784 33.368191913553105
rtibia 30.049111317505922
rfoot 13.78969403496788 1.3015368559514586
rtoes -7.740533424739947
lowerback 13.65130373591601 2.1026728571592286 6.524648770885916
upperback -1.9017318385241664 4.0432314783106555 1.3378798618021701
thorax -9.394717564741821 1.6317823316573214 -3.09318829524114
lowerneck -19.38630209919161 -4.8894034871467476 -2.8266162806010837
upperneck 13.594891405346665 -6.5078157668600625 3.5818633811654146
head 7.568322399689688 -2.9045232104544105 0.8506264066706899
lclavicle 2.9801522175861157e-15 1.190093304795024e-16
lhumerus -67.87158626425395 -6.587338195544972 97.27399187928094
lradius 108.81700706555827
lwrist 31.746705404679087
lhand -20.974397471877 3.562725974661556
lfingers 7.125019999999999
lthumb 5.399102527191451 33.47399593055248
rclavicle 2.9801522175861157e-15 1.190093304795024e-16
rhumerus -34.51511283296484 16.2828897051006 -98.52839536162573
rradius 118.28498541611246
rwrist -15.338301082231903
rhand -18.1887865842264 44.220670504522914
rfingers 7.125019999999999
rthumb 8.088163416422598 14.39547049793364
11
root 0.5551496533310719 18.065494797624243 -23.079887200402467 4.263669869301795 0.6030549989090492 -3.266705860135408
lfemur -41.123088653697295 -2.652980670744781 -17.92260585997391
ltibia 57.5826990318692
lfoot -4.620686339168084 -8.059201919405387
ltoes -19.971488487334767
rfemur 15.629285429210992 4.7689855516302035 32.39109350782684
rtibia 28.143712031193253
rfoot 21.4309890399445 3.1069332320968357
rtoes -1.0979785894822924
lowerback 12.864607430294926 2.342731472517056 6.2082495151297765
upperback -2.203148490593272 4.23711080861878 1.0415427158438082
thorax -9.249529363085161 1.7356714736826886 -3.2366777680826355
lowerneck -18.456110551184484 -5.159271289696717 -2.9879525600069536
upperneck 13.73459047080373 -6.915723449445821 3.872341515763731
head 7.488554223398816 -3.0913208724765697 0.9388444908725303
lclavicle 2.9801520094131507e-15 1.190092618765062e-16
lhumerus -69.28068512214071 -4.8731219077377705 96.10769685227822
lradius 108.74600717461274
lwrist 32.71800147346943
lhand -21.31769428439528 3.5138963019593783
lfingers 7.125019999999999
lthumb 5.067575715405764 33.433296202048574
rclavicle 2.9801520094131507e-15 1.190092618765062e-16
rhumerus -36.110011433930715 16.641788911398816 -98.67449468138011
rradius 118.10298572898894
rwrist -14.459408146084678
rhand -18.733682857843164 42.105282745217664
rfingers 7.125019999999999
rthumb 7.562177144825979 12.260483069055816
12
root 0.5581833939350341 18.15589325568651 -22.028887641166683 4.339429410853864 0.9538990520169868 -3.0202567326101093
lfemur -39.33938945202261 -3.5596189630900277 -18.386505205436467
ltibia 47.31520253745728
lfoot -3.667606966966824 -8.905260401825192
ltoes -12.121895642835378
rfemur 17.01898480021713 6.544271935628477 32.82589279839053
rtibia 29.167911647568555
rfoot 22.93468805699446 6.637356145708765
rtoes 2.733508431446589
lowerback 12.354409826217282 2.385961223170721 5.934420159239431
upperback -2.384776473193341 4.212740892796582 0.9383467097310139
thorax -9.165220407360433 1.737301460221349 -3.1651980306883285
lowerneck -17.46161958742069 -5.15928128961529 -3.2826057649761746
upperneck 13.172994227706473 -6.940833306791143 4.427607949936146
head 7.16987150931911 -3.09011088762086 1.1900990344743818
lclavicle 2.9801520485635684e-15 1.1900926632297096e-16
lhumerus -70.14948441795508 -3.0931857622491155 94.86230216255075
lradius 108.92500689967257
lwrist 32.89710074858561
lhand -20.089705686165015 3.9937830853517253
lfingers 7.125019999999999
lthumb 6.253254313017356 33.88149321225637
rclavicle 2.9801520485635684e-15 1.1900926632297096e-16
rhumerus -37.44921025919472 17.545586912659125 -98.90619360257855
rradius 117.78498627566326
rwrist -13.384516785219216
rhand -19.901574870977704 41.97588349398665
rfingers 7.125019999999999
rthumb 6.434815136023754 12.093584051781953
